<?xml version="1.0" encoding="UTF-8"?><svg id="Layer_1" xmlns="http://www.w3.org/2000/svg" xmlns:xlink="http://www.w3.org/1999/xlink" viewBox="0 0 1920 775.82"><defs><style>.cls-1{fill:none;}.cls-2{fill:#fff;}.cls-3{clip-path:url(#clippath);}</style><clipPath id="clippath"><rect class="cls-1" x="390.28" y="284.94" width="205.94" height="205.94"/></clipPath></defs><g class="cls-3"><path class="cls-2" d="M464.57,442.04c13.99,0,25.34-11.35,25.34-25.34s-11.35-25.34-25.34-25.34-25.34,11.34-25.34,25.34,11.35,25.34,25.34,25.34Z"/><path class="cls-2" d="M521.95,384.45c13.99,0,25.34-11.35,25.34-25.34s-11.35-25.34-25.34-25.34-25.34,11.35-25.34,25.34,11.34,25.34,25.34,25.34Z"/><path class="cls-2" d="M464.57,490.88c10.58,0,19.16-8.58,19.16-19.16s-8.58-19.16-19.16-19.16-19.17,8.58-19.17,19.16,8.58,19.16,19.17,19.16Z"/><path class="cls-2" d="M521.94,323.27c10.58,0,19.16-8.58,19.16-19.17s-8.58-19.16-19.16-19.16-19.17,8.58-19.17,19.16,8.58,19.17,19.17,19.17Z"/><path class="cls-2" d="M464.57,375.11c8.82,0,15.98-7.15,15.98-15.98s-7.16-15.98-15.98-15.98-15.98,7.16-15.98,15.98,7.15,15.98,15.98,15.98Z"/><path class="cls-2" d="M521.93,432.69c8.83,0,15.98-7.15,15.98-15.98s-7.15-15.98-15.98-15.98-15.98,7.15-15.98,15.98,7.15,15.98,15.98,15.98Z"/><path class="cls-2" d="M409.44,435.87c10.58,0,19.16-8.58,19.16-19.16s-8.58-19.17-19.16-19.17-19.17,8.58-19.17,19.17,8.58,19.16,19.17,19.16Z"/><path class="cls-2" d="M577.05,378.29c10.58,0,19.16-8.58,19.16-19.16s-8.58-19.16-19.16-19.16-19.17,8.58-19.17,19.16,8.58,19.16,19.17,19.16Z"/><path class="cls-2" d="M409.44,371.97c7.09,0,12.84-5.75,12.84-12.84s-5.75-12.84-12.84-12.84-12.84,5.75-12.84,12.84,5.75,12.84,12.84,12.84Z"/><path class="cls-2" d="M577.05,429.55c7.09,0,12.84-5.75,12.84-12.84s-5.75-12.84-12.84-12.84-12.84,5.75-12.84,12.84,5.75,12.84,12.84,12.84Z"/><path class="cls-2" d="M464.56,316.95c7.09,0,12.84-5.75,12.84-12.84s-5.75-12.84-12.84-12.84-12.84,5.75-12.84,12.84,5.75,12.84,12.84,12.84Z"/><path class="cls-2" d="M521.94,484.56c7.09,0,12.84-5.75,12.84-12.84s-5.75-12.84-12.84-12.84-12.84,5.75-12.84,12.84,5.75,12.84,12.84,12.84Z"/></g><path class="cls-2" d="M680.28,364.13c1.55,0,2.81.13,3.51.27v10.2c-.7-.13-1.83-.26-3.37-.26-7.16,0-13.2,2.25-18.25,6.75-5.05,4.5-8,10.6-8.98,18.15v34.84h-11.51v-68.88h11.51v18.14c1.4-5.43,4.49-9.93,9.41-13.64,4.91-3.71,10.81-5.56,17.69-5.56Z"/><path class="cls-2" d="M695.97,340.42h11.51v10.6h-11.51v-10.6ZM695.97,365.19h11.51v68.88h-11.51v-68.88Z"/><path class="cls-2" d="M780.81,365.19h11.93l-32.01,68.88h-9.69l-32.01-68.88h11.79l24.99,54.97,24.99-54.97Z"/><path class="cls-2" d="M837.55,363.87c8.85,0,17.69,3.18,25.13,9.41,7.44,5.96,11.94,17.22,10.67,30.46h-61.21c1.68,14.3,13.19,22.38,27.23,22.38,8.99,0,16.29-2.52,21.9-7.68l6.74,5.83c-6.6,7.42-16.15,11.13-28.92,11.13-6.46,0-12.49-1.19-18.25-3.71-11.23-5.17-20.08-16.69-20.08-31.92,0-23.97,20.36-35.9,36.78-35.9ZM837.55,373.27c-5.9,0-11.37,1.98-16.42,5.96-4.91,3.84-8,9.27-8.98,16.29h50.96c-.56-6.89-3.51-12.32-8.7-16.29-5.2-3.98-10.81-5.96-16.85-5.96Z"/><path class="cls-2" d="M924.88,364.13c1.54,0,2.81.13,3.51.27v10.2c-.7-.13-1.83-.26-3.37-.26-7.16,0-13.19,2.25-18.25,6.75-5.05,4.5-8,10.6-8.98,18.15v34.84h-11.51v-68.88h11.51v18.14c1.4-5.43,4.49-9.93,9.41-13.64,4.91-3.71,10.81-5.56,17.69-5.56Z"/><path class="cls-2" d="M1027.89,363.87c7.44,0,13.9,2.38,19.09,7.29,5.33,4.9,8,12.32,8,22.52v40.4h-11.37v-40.66c0-13.11-7.3-20-18.39-20-11.79,0-19.51,8.74-21.76,19.47v41.19h-11.37v-40.66c0-12.85-8-20-18.67-20-6.04,0-10.81,1.98-14.6,5.83-3.65,3.84-5.9,8.48-6.74,13.64v41.19h-11.51v-68.88h11.51v15.63c.42-3.31,2.81-7.02,6.88-10.99,4.21-3.97,9.83-5.96,16.71-5.96,10.81,0,21.34,5.96,25.69,17.22,1.55-4.37,4.63-8.21,9.27-11.79,4.63-3.58,10.39-5.43,17.27-5.43Z"/><path class="cls-2" d="M1103.26,363.87c8.84,0,17.68,3.18,25.14,9.41,7.43,5.96,11.91,17.22,10.65,30.46h-61.19c1.68,14.3,13.2,22.38,27.24,22.38,8.96,0,16.27-2.52,21.89-7.68l6.74,5.83c-6.59,7.42-16.15,11.13-28.93,11.13-6.47,0-12.48-1.19-18.25-3.71-11.22-5.17-20.06-16.69-20.06-31.92,0-23.97,20.36-35.9,36.78-35.9ZM1103.26,373.27c-5.89,0-11.37,1.98-16.42,5.96-4.93,3.84-8.03,9.27-8.99,16.29h50.97c-.57-6.89-3.52-12.32-8.72-16.29-5.2-3.98-10.8-5.96-16.84-5.96Z"/><path class="cls-2" d="M1184.97,435.39c-9.26,0-17.68-3.18-25.26-9.54-7.46-6.36-11.25-15.1-11.25-26.23s3.79-19.87,11.25-26.22c7.58-6.36,16-9.54,25.26-9.54,12.21,0,22.61,6.49,26.52,14.44h.84v-13.11h11.4v68.88h-11.4v-13.11h-.84c-3.91,7.95-14.31,14.44-26.52,14.44ZM1167.7,418.84c5.47,4.64,11.64,6.89,18.52,6.89s13.05-2.25,18.4-6.89c5.32-4.64,8-10.99,8-19.21s-2.68-14.57-8-19.21c-5.35-4.63-11.52-6.89-18.4-6.89s-13.05,2.25-18.52,6.89c-5.35,4.64-8,10.99-8,19.21s2.65,14.57,8,19.21Z"/><path class="cls-2" d="M1299.23,340.42h11.52v40.93h-.15v52.72h-11.37v-13.11h-.84c-3.91,7.95-14.31,14.44-26.52,14.44-9.26,0-17.68-3.18-25.26-9.54-7.46-6.36-11.25-15.1-11.25-26.23s3.79-19.87,11.25-26.22c7.58-6.36,16-9.54,25.26-9.54,12.21,0,22.61,6.49,26.52,14.44h.84v-37.88ZM1254.61,418.84c5.47,4.64,11.64,6.89,18.52,6.89s13.05-2.25,18.4-6.89c5.32-4.64,8-10.99,8-19.21s-2.68-14.57-8-19.21c-5.35-4.63-11.52-6.89-18.4-6.89s-13.05,2.25-18.52,6.89c-5.35,4.64-8,10.99-8,19.21s2.65,14.57,8,19.21Z"/><path class="cls-2" d="M1398.38,399.76c0,10.99-3.94,19.74-11.79,26.1-7.73,6.36-16.3,9.54-25.68,9.54-12.78,0-27.24-6.49-34.13-20-2.38-4.64-3.52-9.94-3.52-15.63,0-11.52,5.2-21.32,12.51-27.02,11.52-8.74,25.41-11.12,38.04-6.49,12.63,3.98,24.72,15.76,24.57,33.51ZM1360.91,373.54c-6.77,0-12.78,2.38-18.25,7.02-5.47,4.64-8.15,10.99-8.15,19.21s2.68,14.44,8.15,19.07c5.47,4.64,11.49,6.89,18.25,6.89s12.63-2.25,18.1-6.89c5.47-4.64,8.15-10.99,8.15-19.07s-2.68-14.57-8.15-19.21c-5.47-4.63-11.52-7.02-18.1-7.02Z"/><path class="cls-2" d="M1496.62,419.89l21.74-54.7h11.37l-27.94,68.88h-9.95l-23.73-56.56-23.73,56.56h-9.98l-28.06-68.88h11.49l21.77,54.7,23.3-54.7h10.4l23.3,54.7Z"/></svg>